<svg xmlns="http://www.w3.org/2000/svg" width="257.331" height="256.011" viewBox="0 0 257.331 256.011">
  <g id="Groupe_84" data-name="Groupe 84" transform="translate(-1460.001 -45.562)">
    <circle id="Ellipse_27" data-name="Ellipse 27" cx="7.959" cy="7.959" r="7.959" transform="translate(1513.055 93.321)" fill="#d0207f" opacity="0.2" style="isolation: isolate"/>
    <circle id="Ellipse_28" data-name="Ellipse 28" cx="7.959" cy="7.959" r="7.959" transform="translate(1513.055 153.001)" fill="#efc120" opacity="0.2" style="isolation: isolate"/>
    <circle id="Ellipse_29" data-name="Ellipse 29" cx="7.959" cy="7.959" r="7.959" transform="translate(1563.468 45.562)" fill="#efc120" opacity="0.2" style="isolation: isolate"/>
    <circle id="Ellipse_30" data-name="Ellipse 30" cx="7.959" cy="7.959" r="7.959" transform="translate(1632.441 61.481)" fill="#d0207f" opacity="0.2" style="isolation: isolate"/>
    <circle id="Ellipse_31" data-name="Ellipse 31" cx="7.959" cy="7.959" r="7.959" transform="translate(1580.001 125.668)" fill="#d0207f" opacity="0.2" style="isolation: isolate"/>
    <circle id="Ellipse_32" data-name="Ellipse 32" cx="7.959" cy="7.959" r="7.959" transform="translate(1460.001 186.174)" fill="#d70846" opacity="0.2" style="isolation: isolate"/>
    <circle id="Ellipse_33" data-name="Ellipse 33" cx="7.959" cy="7.959" r="7.959" transform="translate(1515.708 251.161)" fill="#efc120" opacity="0.2" style="isolation: isolate"/>
    <circle id="Ellipse_34" data-name="Ellipse 34" cx="7.959" cy="7.959" r="7.959" transform="translate(1578.055 285.654)" fill="#efc120" opacity="0.2" style="isolation: isolate"/>
    <circle id="Ellipse_35" data-name="Ellipse 35" cx="7.959" cy="7.959" r="7.959" transform="translate(1554.571 187.467) rotate(-45)" fill="#efc120" opacity="0.2" style="isolation: isolate"/>
    <circle id="Ellipse_36" data-name="Ellipse 36" cx="7.959" cy="7.959" r="7.959" transform="translate(1662.948 267.081)" fill="#d70846" opacity="0.2" style="isolation: isolate"/>
    <circle id="Ellipse_37" data-name="Ellipse 37" cx="7.959" cy="7.959" r="7.959" transform="translate(1627.731 234.36) rotate(-45)" fill="#d70846" opacity="0.2" style="isolation: isolate"/>
    <circle id="Ellipse_38" data-name="Ellipse 38" cx="7.959" cy="7.959" r="7.959" transform="translate(1696.108 190.148)" fill="#d70846" opacity="0.2" style="isolation: isolate"/>
    <circle id="Ellipse_39" data-name="Ellipse 39" cx="7.959" cy="7.959" r="7.959" transform="translate(1701.415 105.254)" fill="#efc120" opacity="0.2" style="isolation: isolate"/>
    <circle id="Ellipse_40" data-name="Ellipse 40" cx="7.959" cy="7.959" r="7.959" transform="translate(1648.974 165.441)" fill="#efc120" opacity="0.2" style="isolation: isolate"/>
  </g>
</svg>
