<svg xmlns="http://www.w3.org/2000/svg" width="36" height="36" viewBox="0 0 36 36">
  <g id="Groupe_83" data-name="Groupe 83" transform="translate(-163 -5)">
    <circle id="Ellipse_4" data-name="Ellipse 4" cx="18" cy="18" r="18" transform="translate(163 5)" fill="#fedcee"/>
    <path id="Tracé_15" data-name="Tracé 15" d="M766.626,24.845H749.373a.615.615,0,0,0-.613.614v1.235a.2.2,0,0,0,.112.148l9.068,5.18a.161.161,0,0,0,.077.02.155.155,0,0,0,.078-.021l8.794-5.174c.05-.027.181-.1.23-.134s.121-.077.121-.15v-1.1a.615.615,0,0,0-.614-.614Z" transform="translate(-577 -9)" fill="#d0207f"/>
    <path id="Tracé_16" data-name="Tracé 16" d="M767.163,28.555a.158.158,0,0,0-.077-.02.152.152,0,0,0-.078.021l-4.977,2.928a.169.169,0,0,0-.049.047.147.147,0,0,0-.019.131.14.14,0,0,0,.034.059l4.977,5.365a.166.166,0,0,0,.051.037.158.158,0,0,0,.061.012.154.154,0,0,0,.154-.153V28.688a.155.155,0,0,0-.077-.133Z" transform="translate(-577 -9)" fill="#d0207f"/>
    <path id="Tracé_17" data-name="Tracé 17" d="M760.6,32.468a.151.151,0,0,0-.09-.048.159.159,0,0,0-.1.019l-1.995,1.174a.76.76,0,0,1-.384.1.779.779,0,0,1-.386-.1l-1.755-1a.153.153,0,0,0-.094-.019.156.156,0,0,0-.086.04L749.04,38.82a.139.139,0,0,0-.039.059.151.151,0,0,0-.009.07.159.159,0,0,0,.024.067.156.156,0,0,0,.051.048.6.6,0,0,0,.306.09H766.45a.143.143,0,0,0,.084-.025.147.147,0,0,0,.056-.067.151.151,0,0,0-.028-.165Z" transform="translate(-577 -9)" fill="#d0207f"/>
    <path id="Tracé_18" data-name="Tracé 18" d="M754.24,31.9a.148.148,0,0,0,.048-.129.147.147,0,0,0-.024-.067.144.144,0,0,0-.052-.049l-5.224-2.984a.154.154,0,0,0-.076-.02.145.145,0,0,0-.076.021.15.15,0,0,0-.056.056.158.158,0,0,0-.02.077v7.828a.151.151,0,0,0,.025.085.147.147,0,0,0,.067.056.152.152,0,0,0,.087.011.156.156,0,0,0,.078-.039Z" transform="translate(-577 -9)" fill="#d0207f"/>
  </g>
</svg>
