<svg xmlns="http://www.w3.org/2000/svg" width="33" height="42.9" viewBox="0 0 33 42.9">
  <g id="Groupe_78" data-name="Groupe 78" transform="translate(-5 -2)">
    <path id="Tracé_158" data-name="Tracé 158" d="M5.5,43.75V2.5H27.445l9.405,9.4V43.75Z" transform="translate(0.325 0.325)" fill="#fff"/>
    <path id="Tracé_159" data-name="Tracé 159" d="M27.44,3.65l8.91,8.91V43.25H6.65V3.65H27.44M28.1,2H5V44.9H38v-33L28.1,2Z" fill="#c74343"/>
    <path id="Tracé_160" data-name="Tracé 160" d="M18.5,12.4V2.5h.495L28.4,11.9V12.4Z" transform="translate(8.775 0.325)" fill="#ffd9d9"/>
    <path id="Tracé_161" data-name="Tracé 161" d="M25.5,4.31l7.59,7.59H25.5V4.31M25.5,2H23.85V13.55H35.4V11.9L25.5,2ZM10.65,36.65A1.628,1.628,0,0,1,9,35.165c0-1.815,2.31-3.135,5.115-4.125A24.821,24.821,0,0,0,15.6,28.07a30.735,30.735,0,0,0,1.485-3.96,14.547,14.547,0,0,1-.99-4.62,4.14,4.14,0,0,1,.33-1.65,1.706,1.706,0,0,1,2.97,0,4.14,4.14,0,0,1,.33,1.65,19.572,19.572,0,0,1-.825,4.62,20,20,0,0,0,3.3,5.445c2.31-.165,3.96-.165,4.95.33,1.485.5,1.65,1.32,1.65,1.815s-.165,1.98-2.475,1.98a6.964,6.964,0,0,1-4.785-2.31,25.825,25.825,0,0,0-4.455.825c-.66.165-1.32.33-1.815.5C13.785,34.835,12.135,36.65,10.65,36.65Zm1.815-3.135A4.539,4.539,0,0,0,10.65,35,4.455,4.455,0,0,0,12.465,33.515Zm11.385-2.64a4.91,4.91,0,0,0,2.475.825c.825,0,.825-.165.825-.33h0C26.985,31.04,25.665,30.875,23.85,30.875Zm-5.775-4.62A44.849,44.849,0,0,1,16.26,30.38c1.32-.33,2.64-.66,3.8-.825C19.4,28.565,18.735,27.41,18.075,26.255ZM17.91,18.5c-.165.165-.33.825,0,2.475Q18.405,18.748,17.91,18.5Z" transform="translate(2.6)" fill="#c74343"/>
  </g>
</svg>
