<svg xmlns="http://www.w3.org/2000/svg" width="18" height="18" viewBox="0 0 18 18">
  <g id="Groupe_89" data-name="Groupe 89" transform="translate(-130 -1580)">
    <circle id="Ellipse_46" data-name="Ellipse 46" cx="9" cy="9" r="9" transform="translate(130 1580)" fill="#fff"/>
    <path id="Tracé_152" data-name="Tracé 152" d="M143,1585h-8a1,1,0,0,0-1,1v6a1,1,0,0,0,1,1h8a1,1,0,0,0,1-1v-6A1,1,0,0,0,143,1585Zm-.2,2.12-3.27,2.05a.971.971,0,0,1-1.06,0l-3.27-2.05a.3.3,0,0,1-.129-.11.354.354,0,0,1-.075-.15.424.424,0,0,1-.008-.17.407.407,0,0,1,.06-.16.362.362,0,0,1,.117-.12.327.327,0,0,1,.157-.07.491.491,0,0,1,.171,0,.434.434,0,0,1,.157.06l3.35,2.1,3.35-2.1a.434.434,0,0,1,.157-.06.491.491,0,0,1,.171,0,.327.327,0,0,1,.157.07.362.362,0,0,1,.117.12.407.407,0,0,1,.06.16.424.424,0,0,1-.008.17.354.354,0,0,1-.075.15A.3.3,0,0,1,142.8,1587.12Z" fill="#c70964"/>
  </g>
</svg>
