<svg xmlns="http://www.w3.org/2000/svg" width="18" height="18" viewBox="0 0 18 18">
  <path id="Tracé_151" data-name="Tracé 151" d="M139,1512a9,9,0,1,0,9,9A9,9,0,0,0,139,1512Zm-3.234,3.57a.548.548,0,0,1,.48.3l1.23,2.34a.679.679,0,0,1-.137.77l-.564.56a.279.279,0,0,0-.058.16,7.053,7.053,0,0,0,3.457,3.56.3.3,0,0,0,.294-.03l.655-.67a.751.751,0,0,1,.794-.11h.011l2.22,1.31a.535.535,0,0,1,.127.84l-1.53,1.52a1.156,1.156,0,0,1-.817.31,7.1,7.1,0,0,1-3.508-1.33,13.476,13.476,0,0,1-4.1-4.46,5.79,5.79,0,0,1-.748-2.55,1.124,1.124,0,0,1,.311-.83l1.529-1.53A.633.633,0,0,1,135.766,1515.57Z" transform="translate(-130 -1512)" fill="#fff"/>
</svg>
