<svg xmlns="http://www.w3.org/2000/svg" width="36" height="36" viewBox="0 0 36 36">
  <g id="Groupe_82" data-name="Groupe 82" transform="translate(0 -5)">
    <circle id="Ellipse_3" data-name="Ellipse 3" cx="18" cy="18" r="18" transform="translate(0 5)" fill="#d0207f"/>
    <path id="Tracé_13" data-name="Tracé 13" d="M595,14a18,18,0,1,0,18,18A18,18,0,0,0,595,14Zm-6.469,7.15a1.1,1.1,0,0,1,.96.593l2.461,4.667a1.354,1.354,0,0,1-.274,1.54l-1.127,1.128a.546.546,0,0,0-.117.32,9.617,9.617,0,0,0,2.9,4.279c1.156,1.061,2.4,2.5,4.014,2.838a.634.634,0,0,0,.587-.057l1.309-1.333a1.5,1.5,0,0,1,1.589-.229h.022l4.44,2.621a1.069,1.069,0,0,1,.253,1.679l-3.059,3.035a2.215,2.215,0,0,1-1.634.619,14.148,14.148,0,0,1-7.016-2.643,27.071,27.071,0,0,1-8.189-8.934,11.566,11.566,0,0,1-1.5-5.093,2.228,2.228,0,0,1,.622-1.655l3.059-3.059A1.2,1.2,0,0,1,588.531,21.15Z" transform="translate(-577 -9)" fill="#fedcee"/>
  </g>
</svg>
