<svg xmlns="http://www.w3.org/2000/svg" width="27.036" height="31.195" viewBox="0 0 27.036 31.195">
  <g id="Groupe_23" data-name="Groupe 23" transform="translate(0 0)">
    <path id="Tracé_25" data-name="Tracé 25" d="M28.1,457.318l-5.976-6.075v5.686a.388.388,0,0,0,.39.39Z" transform="translate(-11.207 -442.241)" fill="#519a2a"/>
    <path id="Tracé_26" data-name="Tracé 26" d="M23.089,458.808V450.75H15.031a.781.781,0,0,0-.781.779v21.318a.781.781,0,0,0,.781.779H31.148a.781.781,0,0,0,.779-.779V459.589H23.869a.781.781,0,0,1-.781-.781Z" transform="translate(-14.25 -442.431)" fill="#519a2a"/>
    <path id="Tracé_27" data-name="Tracé 27" d="M29.265,451.318h5.586l-5.976-6.075v5.686a.388.388,0,0,0,.39.39Z" transform="translate(-8.598 -444.56)" fill="#519a2a"/>
    <path id="Tracé_28" data-name="Tracé 28" d="M31.2,453.589a.781.781,0,0,1-.781-.781V444.75H20.281a.781.781,0,0,0-.781.779v5.46h2.737a2.645,2.645,0,0,1,1.877.789l7.094,7.214a2.677,2.677,0,0,1,.769,1.885v8.829h6.5a.781.781,0,0,0,.779-.779V453.589Z" transform="translate(-12.221 -444.75)" fill="#519a2a"/>
  </g>
</svg>
