<svg xmlns="http://www.w3.org/2000/svg" width="42.545" height="72" viewBox="0 0 42.545 72">
  <path id="Tracé_165" data-name="Tracé 165" d="M31.636,2A4.089,4.089,0,0,0,30,9.837v5.254H22.636a10.636,10.636,0,1,0,0,21.273h4.091V29.818H22.636a4.091,4.091,0,1,1,0-8.182H41.324a10.121,10.121,0,0,0,5.858,1.636c4.066,0,7.364-1.831,7.364-4.091s-3.3-4.091-7.364-4.091H33.273V9.837A4.089,4.089,0,0,0,31.636,2ZM30,24.909V44.545a11.452,11.452,0,0,0-3.273,22.426V59.634A4.892,4.892,0,0,1,30,51.091h7.364a10.636,10.636,0,1,0,0-21.273H33.273V24.909Zm3.273,11.455h4.091a4.091,4.091,0,0,1,0,8.182H33.273ZM30,54.364v18a1.636,1.636,0,1,0,3.273,0V67.455h8.182a3.273,3.273,0,1,0,0-6.545H33.273V54.364Z" transform="translate(-12 -2)" fill="#fff"/>
</svg>
