<svg xmlns="http://www.w3.org/2000/svg" width="111.448" height="138.343" viewBox="0 0 111.448 138.343">
  <g id="Groupe_85" data-name="Groupe 85" transform="translate(-358.845 -99.947)">
    <path id="Tracé_58" data-name="Tracé 58" d="M273.569,4313.62l-93.5-6.987a5.475,5.475,0,0,1-5.053-5.879l3.713-49.613a5.488,5.488,0,0,1,5.876-5.053l42.553-24.547L241,4223.847l37.1,29.241a5.47,5.47,0,0,1,5.053,5.866l-3.713,49.613A5.479,5.479,0,0,1,273.569,4313.62Z" transform="translate(184.333 -4081.82)" fill="#8f6f13"/>
    <path id="Tracé_59" data-name="Tracé 59" d="M260.4,4313.47l-76.484-15.04a2.981,2.981,0,0,1-2.348-3.507l19.831-100.8a2.989,2.989,0,0,1,3.5-2.36l76.484,15.054a2.966,2.966,0,0,1,2.347,3.493L263.9,4311.123A2.981,2.981,0,0,1,260.4,4313.47Z" transform="translate(186.504 -4091.763)" fill="#fefefe"/>
    <path id="Tracé_60" data-name="Tracé 60" d="M253.82,4216.07l-53.641-10.546,1.1-5.613,53.643,10.546Z" transform="translate(192.727 -4089.03)" fill="#d0207f"/>
    <path id="Tracé_61" data-name="Tracé 61" d="M227.065,4245.863l-33.055-6.505,3.064-15.587,33.055,6.493Z" transform="translate(190.67 -4081.077)" fill="#d0207f"/>
    <path id="Tracé_62" data-name="Tracé 62" d="M252.1,4273.207l-46.784-9.2,1.6-8.106,46.772,9.213Z" transform="translate(194.438 -4070.367)" fill="#d0207f"/>
    <path id="Tracé_63" data-name="Tracé 63" d="M264.427,4220.621,199.56,4207.86l-.492,2.494,64.868,12.759Z" transform="translate(192.356 -4086.38)" fill="#333"/>
    <path id="Tracé_64" data-name="Tracé 64" d="M263.652,4224.6l-64.868-12.761-.492,2.493,64.868,12.761Z" transform="translate(192.097 -4085.053)" fill="#333"/>
    <path id="Tracé_65" data-name="Tracé 65" d="M262.865,4228.58,198,4215.82l-.492,2.494,64.868,12.759Z" transform="translate(191.835 -4083.727)" fill="#333"/>
    <path id="Tracé_66" data-name="Tracé 66" d="M258.132,4252.661l-64.868-12.76-.492,2.507,64.868,12.76Z" transform="translate(190.257 -4075.701)" fill="#333"/>
    <path id="Tracé_67" data-name="Tracé 67" d="M252.275,4234.264l-28.385-5.573-.492,2.493,28.387,5.586Z" transform="translate(200.466 -4079.437)" fill="#333"/>
    <path id="Tracé_68" data-name="Tracé 68" d="M251.4,4238.707l-28.385-5.586-.492,2.506,28.387,5.574Z" transform="translate(200.175 -4077.96)" fill="#333"/>
    <path id="Tracé_69" data-name="Tracé 69" d="M250.535,4243.157l-28.387-5.586-.491,2.493,28.385,5.587Z" transform="translate(199.886 -4076.477)" fill="#333"/>
    <path id="Tracé_70" data-name="Tracé 70" d="M208.394,4255.994l-17.155-3.373-.491,2.507L207.9,4258.5Z" transform="translate(189.583 -4071.46)" fill="#333"/>
    <path id="Tracé_71" data-name="Tracé 71" d="M207.707,4259.514l-17.153-3.373-.492,2.493,17.155,3.374Z" transform="translate(189.354 -4070.287)" fill="#333"/>
    <path id="Tracé_72" data-name="Tracé 72" d="M257.345,4256.641l-64.868-12.761-.491,2.507,64.868,12.747Z" transform="translate(189.995 -4074.374)" fill="#333"/>
    <path id="Tracé_73" data-name="Tracé 73" d="M256.069,4263.113l-31.808-6.253-33.056-6.506.491-2.494,64.864,12.76Z" transform="translate(189.735 -4073.047)" fill="#333"/>
    <path id="Tracé_74" data-name="Tracé 74" d="M253.8,4274.65l-64.868-12.761-.491,2.493,64.868,12.761Z" transform="translate(188.815 -4068.37)" fill="#333"/>
    <path id="Tracé_75" data-name="Tracé 75" d="M253.018,4278.63l-64.868-12.759-.491,2.493,64.868,12.76Z" transform="translate(188.553 -4067.044)" fill="#333"/>
    <path id="Tracé_76" data-name="Tracé 76" d="M283.069,4253.634l-3.808,50.879a8.1,8.1,0,0,1-8.688,7.48l-88.435-6.613a8.1,8.1,0,0,1-7.481-8.68l3.807-50.88,50.379,29.586Z" transform="translate(184.211 -4073.727)" fill="#efc120"/>
    <path id="Tracé_77" data-name="Tracé 77" d="M260.479,4305.48l-75.064-5.613,30.2-35.987,9.629,5.506,10.36-4.239Z" transform="translate(187.805 -4067.707)" fill="#d4a51b"/>
  </g>
</svg>
