<svg xmlns="http://www.w3.org/2000/svg" width="49.333" height="48.333" viewBox="0 0 49.333 48.333">
  <g id="Groupe_84" data-name="Groupe 84" transform="translate(-339.667 -400.667)">
    <ellipse id="Ellipse_44" data-name="Ellipse 44" cx="24.5" cy="24" rx="24.5" ry="24" transform="translate(340 401)" fill="#fff"/>
    <path id="Tracé_83" data-name="Tracé 83" d="M131.5,4430a24.005,24.005,0,1,0,24.5,24A24.255,24.255,0,0,0,131.5,4430Zm-8.805,9.533a1.507,1.507,0,0,1,1.307.787l3.35,6.227a1.778,1.778,0,0,1-.373,2.053l-1.534,1.507a.692.692,0,0,0-.159.426,12.831,12.831,0,0,0,3.949,5.707c1.573,1.415,3.267,3.321,5.464,3.787a.916.916,0,0,0,.8-.08l1.782-1.787a2.081,2.081,0,0,1,2.163-.292h.03l6.043,3.493a1.41,1.41,0,0,1,.344,2.24l-4.164,4.04a3.059,3.059,0,0,1-2.224.827c-3.51-.106-6.826-1.787-9.55-3.52a36.412,36.412,0,0,1-11.146-11.92c-.988-2-2.148-4.547-2.038-6.787a2.964,2.964,0,0,1,.847-2.213l4.164-4.066A1.564,1.564,0,0,1,122.695,4439.534Z" transform="translate(232.667 -4029.333)" fill="#264863"/>
  </g>
</svg>
