<svg xmlns="http://www.w3.org/2000/svg" width="63" height="57.806" viewBox="0 0 63 57.806">
  <path id="Tracé_166" data-name="Tracé 166" d="M31.5,1.957a13.979,13.979,0,0,0-5.562,1.154L1.21,13.826a2.079,2.079,0,0,0-.072,3.743l9.316,4.721v.82c-2.423,4.9-4.835,14.7-5.169,26.1a2.63,2.63,0,0,0,2.635,2.676h8.3c3.136,3.852,8.091,7.875,15.279,7.875s12.143-4.023,15.279-7.875h8.3a2.623,2.623,0,0,0,2.63-2.676c-.333-11.4-2.746-21.2-5.169-26.1v-.82l5.209-2.635v8.609a2.625,2.625,0,1,0,5.25,0V15.9l-.026-.005a2.045,2.045,0,0,0-1.184-2.071L37.062,3.111A13.979,13.979,0,0,0,31.5,1.957ZM21,28.263H42a5.265,5.265,0,0,1,5.25,5.25v2.625a19.191,19.191,0,0,1-2.23,9.039c-1.91,3.311-6.35,9.336-13.52,9.336s-11.61-6.024-13.52-9.336a19.191,19.191,0,0,1-2.23-9.039V33.513A5.249,5.249,0,0,1,21,28.263Z" transform="translate(0.001 -1.957)" fill="#fff"/>
</svg>
