<svg xmlns="http://www.w3.org/2000/svg" width="52.5" height="45.5" viewBox="0 0 52.5 45.5">
  <path id="Tracé_19" data-name="Tracé 19" d="M361.421,293.25l-23.377,6.45a4.155,4.155,0,0,0-4.294,4.439,7.03,7.03,0,0,0,.835,3.285l17.81,29.787c1.7,2.712,5.319,1.014,5.319,1.014l27.309-13.3L384,323.884a5.833,5.833,0,0,1,1.31-5.268.386.386,0,0,0,.065-.139l.874-.351Zm-12.337,17.418-4.214-6.629,17.276-5.108,4.78,5.2Zm34.027,10.7a7.494,7.494,0,0,0-.08,1.162l-17.928,8.51L383.1,323.41c.017.139.033.279.055.4l-22.982,11.1,23.163-10.273.014.055-25.631,12.261a5.758,5.758,0,0,1-2.355.63,2.128,2.128,0,0,1-2.209-1.818c-.847-3.143,3.961-4.925,4.033-4.951l26.586-11.5a5.763,5.763,0,0,0-.434,1.062l-16.876,7.944Z" transform="translate(-333.75 -293.25)" fill="#fff"/>
</svg>
