<svg xmlns="http://www.w3.org/2000/svg" width="49" height="48" viewBox="0 0 49 48">
  <g id="Groupe_85" data-name="Groupe 85" transform="translate(-340 -459)">
    <ellipse id="Ellipse_45" data-name="Ellipse 45" cx="24.5" cy="24" rx="24.5" ry="24" transform="translate(340 459)" fill="#264863"/>
    <path id="Tracé_85" data-name="Tracé 85" d="M139.581,4484.851h-23a.791.791,0,0,0-.577.239.8.8,0,0,0-.24.574v1.64a.257.257,0,0,0,.149.2L128,4494.41a.146.146,0,0,0,.1.026.291.291,0,0,0,.1-.026l11.725-6.893c.067-.041.241-.134.307-.187s.161-.093.161-.2v-1.467a.8.8,0,0,0-.24-.574A.792.792,0,0,0,139.581,4484.851Z" transform="translate(236.587 -4011.05)" fill="#fff"/>
    <path id="Tracé_86" data-name="Tracé 86" d="M135.9,4488.557a.291.291,0,0,0-.1-.026.158.158,0,0,0-.1.04l-6.636,3.894a.448.448,0,0,0-.067.066.2.2,0,0,0-.032.08.189.189,0,0,0,.007.094.306.306,0,0,0,.045.08l6.637,7.16a.507.507,0,0,0,.068.04.18.18,0,0,0,.081.027.2.2,0,0,0,.144-.067.212.212,0,0,0,.06-.146v-11.054a.2.2,0,0,0-.027-.106A.457.457,0,0,0,135.9,4488.557Z" transform="translate(240.985 -4009.824)" fill="#fff"/>
    <path id="Tracé_87" data-name="Tracé 87" d="M131.466,4492.488a.157.157,0,0,0-.12-.067.161.161,0,0,0-.133.027l-2.66,1.56a.992.992,0,0,1-.512.147,1.142,1.142,0,0,1-.515-.134l-2.34-1.347a.2.2,0,0,0-.125-.013.137.137,0,0,0-.115.054l-8.889,8.239a.267.267,0,0,0-.052.08.184.184,0,0,0-.012.094.259.259,0,0,0,.032.093.161.161,0,0,0,.068.053.694.694,0,0,0,.408.12H139.27a.169.169,0,0,0,.112-.026.225.225,0,0,0,.075-.093.184.184,0,0,0-.037-.213Z" transform="translate(236.664 -4008.528)" fill="#fff"/>
    <path id="Tracé_88" data-name="Tracé 88" d="M123.067,4492.984a.128.128,0,0,0,.053-.08.187.187,0,0,0,.011-.094.184.184,0,0,0-.032-.08.181.181,0,0,0-.069-.066l-6.965-3.987a.271.271,0,0,0-.1-.026.154.154,0,0,0-.1.04.177.177,0,0,0-.075.066.243.243,0,0,0-.027.108v10.44a.166.166,0,0,0,.033.106.158.158,0,0,0,.089.079.326.326,0,0,0,.116.014.3.3,0,0,0,.1-.053Z" transform="translate(236.587 -4009.784)" fill="#fff"/>
  </g>
</svg>
