<svg xmlns="http://www.w3.org/2000/svg" width="36" height="36" viewBox="0 0 36 36">
  <g id="Groupe_85" data-name="Groupe 85" transform="translate(-462 -5)">
    <circle id="Ellipse_1" data-name="Ellipse 1" cx="18" cy="18" r="18" transform="translate(462 5)" fill="#fedcee"/>
    <path id="Tracé_10" data-name="Tracé 10" d="M1053.67,24.5a4.173,4.173,0,0,0-4.17,4.167v6.666a4.173,4.173,0,0,0,4.17,4.167h6.66a4.173,4.173,0,0,0,4.17-4.167V28.667a4.173,4.173,0,0,0-4.17-4.167Zm0,1.667h6.66a2.5,2.5,0,0,1,2.5,2.5v6.666a2.5,2.5,0,0,1-2.5,2.5h-6.66a2.5,2.5,0,0,1-2.5-2.5V28.667A2.5,2.5,0,0,1,1053.67,26.167Zm7.5.833a.834.834,0,1,0,0,1.667.845.845,0,0,0,.59-.244.844.844,0,0,0,0-1.179A.845.845,0,0,0,1061.17,27Zm-4.17.833A4.167,4.167,0,1,0,1061.17,32,4.173,4.173,0,0,0,1057,27.833Zm0,1.667a2.5,2.5,0,1,1-2.5,2.5A2.5,2.5,0,0,1,1057,29.5Z" transform="translate(-577 -9)" fill="#d0207f"/>
  </g>
</svg>
