<svg xmlns="http://www.w3.org/2000/svg" width="287.042" height="126.052" viewBox="0 0 287.042 126.052">
  <g id="Groupe_62" data-name="Groupe 62" transform="translate(-237.692 -514.305)">
    <g id="Groupe_43" data-name="Groupe 43" transform="translate(237.692 514.305)">
      <path id="Tracé_89" data-name="Tracé 89" d="M316.7,591.492H296.392V566.313H271.717V547.681h24.675v-22.5a51.054,51.054,0,1,0,42.453,41.128H316.7Z" transform="translate(-237.692 -500.569)" fill="#fff"/>
      <rect id="Rectangle_48" data-name="Rectangle 48" width="20.342" height="20.342" transform="translate(58.537)" fill="#fff"/>
    </g>
    <rect id="Rectangle_49" data-name="Rectangle 49" width="4.613" height="24.654" transform="translate(316.263 544.352)" fill="#fff"/>
    <path id="Tracé_90" data-name="Tracé 90" d="M275.214,551.816V527.2h17.715v4.473H279.862V538.4h12.364v4.3H279.862v9.121Z" transform="translate(50.03 17.19)" fill="#fff"/>
    <path id="Tracé_91" data-name="Tracé 91" d="M305.644,533.96l-8.031,10.705H296.7l-7.854-10.74v17.927H284.2V527.2h5.353l7.714,10.6,7.712-10.6h5.318v24.654h-4.648Z" transform="translate(62.006 17.19)" fill="#fff"/>
    <g id="Groupe_44" data-name="Groupe 44" transform="translate(344.72 544.319)">
      <path id="Tracé_92" data-name="Tracé 92" d="M308.875,544.6H301.9v7.257h-4.648V527.2c3.873,0,7.747-.035,11.622-.035,12.045,0,12.08,17.432,0,17.432M301.9,540.34h6.974c5.952,0,5.917-8.734,0-8.734H301.9Z" transform="translate(-265.305 -527.168)" fill="#fff"/>
      <path id="Tracé_93" data-name="Tracé 93" d="M325.308,551.836v-11.2H309.6v11.2h-1.9V527.182h1.9V538.91h15.708V527.182h1.9v24.654Z" transform="translate(-251.378 -527.149)" fill="#fff"/>
      <path id="Tracé_94" data-name="Tracé 94" d="M339.453,551.837l-2.714-6.057H322.018l-2.676,6.057H317.3l11.06-24.654h2.077l11.06,24.654ZM336,544.018l-6.622-15-6.622,15Z" transform="translate(-238.578 -527.148)" fill="#fff"/>
      <path id="Tracé_95" data-name="Tracé 95" d="M348.677,551.837h-2.5l-8.524-9.333h-6.727v9.333h-1.9V527.183h10.848c5.353,0,8.066,3.838,8.1,7.677.035,4.016-2.606,7.539-8,7.539Zm-17.75-11.13h8.734c4.3,0,6.2-2.431,6.235-5.882a5.683,5.683,0,0,0-6.022-5.882h-8.946Z" transform="translate(-222.941 -527.148)" fill="#fff"/>
      <path id="Tracé_96" data-name="Tracé 96" d="M360.307,529.929l-9.438,14.439h-.635l-9.511-14.439v21.908h-1.9V527.183h2.254l9.441,14.369,9.333-14.369h2.324v24.654h-1.867Z" transform="translate(-209.879 -527.148)" fill="#fff"/>
      <path id="Tracé_97" data-name="Tracé 97" d="M372.221,551.837l-2.711-6.057H354.788l-2.676,6.057h-2.044l11.06-24.654H363.2l11.06,24.654Zm-3.451-7.819-6.622-15-6.622,15Z" transform="translate(-194.884 -527.148)" fill="#fff"/>
      <rect id="Rectangle_50" data-name="Rectangle 50" width="0.415" height="3.633" transform="translate(0 31.946)" fill="#fff"/>
      <path id="Tracé_98" data-name="Tracé 98" d="M287.063,544.492l-2.179-2.917v2.917h-.415v-3.633h.432l2.179,2.921v-2.921h.408v3.633Z" transform="translate(-282.352 -508.913)" fill="#fff"/>
      <path id="Tracé_99" data-name="Tracé 99" d="M288.942,541.189l-.177.39a1.859,1.859,0,0,0-1-.306c-.467,0-.772.175-.772.481,0,.936,2.044.448,2.039,1.764,0,.609-.534,1-1.314,1a2.073,2.073,0,0,1-1.391-.553l.187-.376a1.812,1.812,0,0,0,1.209.513c.525,0,.852-.212.852-.56,0-.954-2.039-.446-2.039-1.748,0-.572.5-.938,1.255-.938a2.146,2.146,0,0,1,1.153.336" transform="translate(-279.874 -508.921)" fill="#fff"/>
      <path id="Tracé_100" data-name="Tracé 100" d="M289.494,541.258v3.232h-.415v-3.232H287.9v-.4h2.786v.4Z" transform="translate(-277.781 -508.913)" fill="#fff"/>
      <rect id="Rectangle_51" data-name="Rectangle 51" width="0.415" height="3.633" transform="translate(14.098 31.946)" fill="#fff"/>
      <path id="Tracé_101" data-name="Tracé 101" d="M291.9,541.258v3.232h-.415v-3.232H290.3v-.4h2.786v.4Z" transform="translate(-274.577 -508.913)" fill="#fff"/>
      <path id="Tracé_102" data-name="Tracé 102" d="M295.021,543a1.525,1.525,0,0,1-3.05,0v-2.137h.413V543a1.111,1.111,0,1,0,2.221,0v-2.137h.415Z" transform="translate(-272.348 -508.913)" fill="#fff"/>
      <path id="Tracé_103" data-name="Tracé 103" d="M295.358,541.258v3.232h-.415v-3.232h-1.183v-.4h2.786v.4Z" transform="translate(-269.963 -508.913)" fill="#fff"/>
      <path id="Tracé_104" data-name="Tracé 104" d="M297.8,540.859a1.817,1.817,0,1,1-.014,3.633h-1.454v-3.633Zm-1.052,3.239h1.059a1.419,1.419,0,1,0-.016-2.837h-1.043Z" transform="translate(-266.53 -508.913)" fill="#fff"/>
      <path id="Tracé_105" data-name="Tracé 105" d="M298.761,541.258v1.192h1.832v.4h-1.832V544.1h2.116v.394h-2.532v-3.631h2.464v.4Z" transform="translate(-263.848 -508.913)" fill="#fff"/>
      <path id="Tracé_106" data-name="Tracé 106" d="M301.332,541.258v1.276h1.7v.4h-1.7v1.556h-.415v-3.631h2.31v.4Z" transform="translate(-260.419 -508.913)" fill="#fff"/>
      <path id="Tracé_107" data-name="Tracé 107" d="M306.083,542.681a1.9,1.9,0,1,1-1.9-1.827,1.857,1.857,0,0,1,1.9,1.827m-3.383,0a1.48,1.48,0,1,0,1.484-1.433,1.465,1.465,0,0,0-1.484,1.433" transform="translate(-258.602 -508.92)" fill="#fff"/>
      <path id="Tracé_108" data-name="Tracé 108" d="M306.115,543.335c-.077,0-.159.009-.243.009h-.966v1.148h-.415v-3.633h1.381c.908,0,1.433.446,1.433,1.218a1.138,1.138,0,0,1-.814,1.178l.849,1.237h-.471Zm-.243-.39c.658,0,1.031-.292,1.031-.856s-.373-.831-1.031-.831h-.966v1.687Z" transform="translate(-255.654 -508.913)" fill="#fff"/>
      <path id="Tracé_109" data-name="Tracé 109" d="M309.646,544.492l0-2.994-1.323,2.611h-.25l-1.318-2.611v2.994h-.394v-3.633h.513l1.33,2.616,1.323-2.616h.509v3.633Z" transform="translate(-253.167 -508.913)" fill="#fff"/>
      <path id="Tracé_110" data-name="Tracé 110" d="M309.28,543.573l-.4.917h-.441l1.629-3.631h.432l1.624,3.631h-.453l-.4-.917Zm.987-2.242-.81,1.841h1.629Z" transform="translate(-250.395 -508.913)" fill="#fff"/>
      <path id="Tracé_111" data-name="Tracé 111" d="M311.756,541.258v3.232h-.415v-3.232h-1.183v-.4h2.786v.4Z" transform="translate(-248.099 -508.913)" fill="#fff"/>
      <rect id="Rectangle_52" data-name="Rectangle 52" width="0.415" height="3.633" transform="translate(66.043 31.946)" fill="#fff"/>
      <path id="Tracé_112" data-name="Tracé 112" d="M316.428,542.681a1.9,1.9,0,1,1-1.9-1.827,1.857,1.857,0,0,1,1.9,1.827m-3.383,0a1.479,1.479,0,1,0,1.484-1.433,1.465,1.465,0,0,0-1.484,1.433" transform="translate(-244.809 -508.92)" fill="#fff"/>
      <path id="Tracé_113" data-name="Tracé 113" d="M317.431,544.492l-2.179-2.917v2.917h-.415v-3.633h.432l2.179,2.921v-2.921h.408v3.633Z" transform="translate(-241.86 -508.913)" fill="#fff"/>
      <path id="Tracé_114" data-name="Tracé 114" d="M318.345,543.573l-.4.917H317.5l1.629-3.631h.432l1.624,3.631h-.453l-.4-.917Zm.987-2.242-.81,1.841h1.629Z" transform="translate(-238.309 -508.913)" fill="#fff"/>
      <path id="Tracé_115" data-name="Tracé 115" d="M322.552,543a1.526,1.526,0,0,1-3.052,0v-2.137h.415V543a1.111,1.111,0,1,0,2.221,0v-2.137h.415Z" transform="translate(-235.642 -508.913)" fill="#fff"/>
      <path id="Tracé_116" data-name="Tracé 116" d="M324.5,544.492H324L322.9,542.97l-1.094,1.521h-.488l1.332-1.869-1.239-1.764h.488l1,1.4,1.01-1.4h.488L323.16,542.6Z" transform="translate(-233.223 -508.913)" fill="#fff"/>
      <path id="Tracé_117" data-name="Tracé 117" d="M327.391,544.492l0-2.994-1.323,2.611h-.25L324.5,541.5v2.994H324.1v-3.633h.513l1.33,2.616,1.323-2.616h.506v3.633Z" transform="translate(-229.507 -508.913)" fill="#fff"/>
      <path id="Tracé_118" data-name="Tracé 118" d="M326.822,541.92v1.192h1.832v.4h-1.832v1.246h2.116v.394h-2.532v-3.633h2.466v.4Zm.95-.852h-.39l.623-.7.411.2Z" transform="translate(-226.433 -509.573)" fill="#fff"/>
      <path id="Tracé_119" data-name="Tracé 119" d="M329.5,541.258v3.232h-.415v-3.232H327.9v-.4h2.786v.4Z" transform="translate(-224.442 -508.913)" fill="#fff"/>
      <rect id="Rectangle_53" data-name="Rectangle 53" width="0.415" height="3.633" transform="translate(107.443 31.946)" fill="#fff"/>
      <path id="Tracé_120" data-name="Tracé 120" d="M330.93,541.258v1.192h1.832v.4H330.93V544.1h2.116v.394h-2.532v-3.631h2.466v.4Z" transform="translate(-220.956 -508.913)" fill="#fff"/>
      <path id="Tracé_121" data-name="Tracé 121" d="M333.843,543.335c-.077,0-.159.009-.243.009h-.966v1.148h-.415v-3.633H333.6c.908,0,1.433.446,1.433,1.218a1.138,1.138,0,0,1-.814,1.178l.849,1.237H334.6Zm-.243-.39c.658,0,1.031-.292,1.031-.856s-.373-.831-1.031-.831h-.966v1.687Z" transform="translate(-218.683 -508.913)" fill="#fff"/>
      <path id="Tracé_122" data-name="Tracé 122" d="M336.536,541.189l-.175.39a1.872,1.872,0,0,0-1-.306c-.467,0-.772.175-.772.481,0,.936,2.044.448,2.039,1.764,0,.609-.534,1-1.314,1a2.072,2.072,0,0,1-1.391-.553l.187-.376a1.812,1.812,0,0,0,1.209.513c.525,0,.852-.212.852-.56,0-.954-2.039-.446-2.039-1.748,0-.572.5-.938,1.255-.938a2.146,2.146,0,0,1,1.153.336" transform="translate(-216.415 -508.921)" fill="#fff"/>
      <path id="Tracé_123" data-name="Tracé 123" d="M338.037,540.859a1.817,1.817,0,1,1-.016,3.633h-1.454v-3.633Zm-1.055,3.239h1.059a1.419,1.419,0,1,0-.016-2.837h-1.043Z" transform="translate(-212.886 -508.913)" fill="#fff"/>
      <path id="Tracé_124" data-name="Tracé 124" d="M338.994,541.258v1.192h1.832v.4h-1.832V544.1h2.116v.394h-2.532v-3.631h2.464v.4Z" transform="translate(-210.203 -508.913)" fill="#fff"/>
      <path id="Tracé_125" data-name="Tracé 125" d="M343.159,544.1v.394H341.15v-3.633h.415V544.1Z" transform="translate(-206.775 -508.914)" fill="#fff"/>
      <path id="Tracé_126" data-name="Tracé 126" d="M343.194,543.573l-.4.917h-.441l1.629-3.631h.432l1.624,3.631h-.453l-.4-.917Zm.987-2.242-.81,1.841H345Z" transform="translate(-205.176 -508.913)" fill="#fff"/>
      <path id="Tracé_127" data-name="Tracé 127" d="M346.661,540.859c.9,0,1.416.446,1.416,1.218,0,.805-.518,1.267-1.416,1.267h-.95v1.148H345.3v-3.633Zm-.95,2.086h.936c.653,0,1.031-.292,1.031-.856s-.378-.831-1.031-.831h-.936Z" transform="translate(-201.247 -508.913)" fill="#fff"/>
      <path id="Tracé_128" data-name="Tracé 128" d="M349.646,544.492v-1.6h-2.189v1.6h-.415v-3.633h.415v1.64h2.189v-1.64h.415v3.633Z" transform="translate(-198.919 -508.913)" fill="#fff"/>
      <path id="Tracé_129" data-name="Tracé 129" d="M349.682,543.573l-.4.917h-.441l1.629-3.631h.432l1.624,3.631h-.453l-.4-.917Zm.987-2.242-.81,1.841h1.629Z" transform="translate(-196.526 -508.913)" fill="#fff"/>
      <path id="Tracé_130" data-name="Tracé 130" d="M352.54,543.335c-.077,0-.159.009-.243.009h-.966v1.148h-.413v-3.633H352.3c.908,0,1.433.446,1.433,1.218a1.138,1.138,0,0,1-.814,1.178l.849,1.237h-.471Zm-.243-.39c.658,0,1.031-.292,1.031-.856s-.373-.831-1.031-.831h-.966v1.687Z" transform="translate(-193.751 -508.913)" fill="#fff"/>
      <path id="Tracé_131" data-name="Tracé 131" d="M356.073,544.492l0-2.994-1.323,2.611h-.25l-1.318-2.611v2.994h-.394v-3.633h.513l1.33,2.616,1.323-2.616h.506v3.633Z" transform="translate(-191.265 -508.913)" fill="#fff"/>
      <path id="Tracé_132" data-name="Tracé 132" d="M355.706,543.573l-.4.917h-.441l1.629-3.631h.432l1.624,3.631h-.453l-.4-.917Zm.987-2.242-.81,1.841h1.629Z" transform="translate(-188.494 -508.913)" fill="#fff"/>
      <path id="Tracé_133" data-name="Tracé 133" d="M359.979,541.385l-.25.318a1.518,1.518,0,0,0-1.073-.457,1.432,1.432,0,1,0,0,2.863,1.587,1.587,0,0,0,1.073-.434l.254.285a2,2,0,0,1-1.349.56,1.832,1.832,0,1,1,.016-3.663,1.966,1.966,0,0,1,1.328.53" transform="translate(-185.966 -508.919)" fill="#fff"/>
      <rect id="Rectangle_54" data-name="Rectangle 54" width="0.415" height="3.633" transform="translate(175.367 31.946)" fill="#fff"/>
      <path id="Tracé_134" data-name="Tracé 134" d="M360.04,541.258v1.192h1.832v.4H360.04V544.1h2.116v.394h-2.532v-3.631h2.466v.4Z" transform="translate(-182.142 -508.913)" fill="#fff"/>
    </g>
  </g>
</svg>
